HIERARCHY
ROOT pelvis
{
  OFFSET 0 0 0
  CHANNELS 6 Xposition Yposition Zposition Zrotation Xrotation Yrotation
  JOINT spine_01
  {
    OFFSET 10.8089 -0.851415 0
    CHANNELS 3 Zrotation Xrotation Yrotation
    JOINT spine_02
    {
      OFFSET 18.8753 3.80116 0
      CHANNELS 3 Zrotation Xrotation Yrotation
      JOINT spine_03
      {
        OFFSET 13.4073 0.420477 0
        CHANNELS 3 Zrotation Xrotation Yrotation
        JOINT clavicle_l
        {
          OFFSET 11.8837 -2.73209 -3.78198
          CHANNELS 3 Zrotation Xrotation Yrotation
          JOINT upperarm_l
          {
            OFFSET 15.7849 0 0
            CHANNELS 3 Zrotation Xrotation Yrotation
            JOINT lowerarm_l
            {
              OFFSET 30.3399 0 0
              CHANNELS 3 Zrotation Xrotation Yrotation
              JOINT hand_l
              {
                OFFSET 26.9751 0 0
                CHANNELS 3 Zrotation Xrotation Yrotation
                End Site
                {
                  OFFSET 0 0 0
                }
              }
            }
          }
        }
        JOINT clavicle_r
        {
          OFFSET 11.8838 -2.7321 3.782
          CHANNELS 3 Zrotation Xrotation Yrotation
          JOINT upperarm_r
          {
            OFFSET -15.7848 0 0
            CHANNELS 3 Zrotation Xrotation Yrotation
            JOINT lowerarm_r
            {
              OFFSET -30.34 0 0
              CHANNELS 3 Zrotation Xrotation Yrotation
              JOINT hand_r
              {
                OFFSET -26.9752 2.55532e-005 0
                CHANNELS 3 Zrotation Xrotation Yrotation
                End Site
                {
                  OFFSET 0 0 0
                }
              }
            }
          }
        }
        JOINT neck_01
        {
          OFFSET 16.5588 -0.355317 0
          CHANNELS 3 Zrotation Xrotation Yrotation
          JOINT head
          {
            OFFSET 9.28362 0.364158 0
            CHANNELS 3 Zrotation Xrotation Yrotation
            End Site
            {
              OFFSET 0 0 0
            }
          }
        }
      }
    }
  }
  JOINT thigh_l
  {
    OFFSET -1.44882 -0.531424 -9.00581
    CHANNELS 3 Zrotation Xrotation Yrotation
    JOINT calf_l
    {
      OFFSET -42.572 0 0
      CHANNELS 3 Zrotation Xrotation Yrotation
      JOINT foot_l
      {
        OFFSET -40.1967 0 0
        CHANNELS 3 Zrotation Xrotation Yrotation
        JOINT ball_l
        {
          OFFSET -10.4538 -16.5779 0.0801573
          CHANNELS 3 Zrotation Xrotation Yrotation
          End Site
          {
            OFFSET 0 0 0
          }
        }
      }
    }
  }
  JOINT thigh_r
  {
    OFFSET -1.44865 -0.531428 9.0058
    CHANNELS 3 Zrotation Xrotation Yrotation
    JOINT calf_r
    {
      OFFSET 42.5723 0 0
      CHANNELS 3 Zrotation Xrotation Yrotation
      JOINT foot_r
      {
        OFFSET 40.1968 0 -1.14441e-005
        CHANNELS 3 Zrotation Xrotation Yrotation
        JOINT ball_r
        {
          OFFSET 10.4538 16.5778 -0.0801582
          CHANNELS 3 Zrotation Xrotation Yrotation
          End Site
          {
            OFFSET 0 0 0
          }
        }
      }
    }
  }
}
MOTION
Frames:	15
Frame Time:	0.0333333
0.133643 84.9466 -1.55256 -38.9096 -64.3958 -124.868 -13.6063 2.55585 0.853425 9.86411 0.964517 -0.231141 -1.44386 0.771038 -0.318806 -9.52109 28.7465 98.7091 -40.0297 36.8082 65.2286 -60.5533 -7.15067 1.22256 -163.751 -72.5346 -162.348 166.863 25.2431 106.386 -53.0091 -10.3636 49.9295 -87.6497 -7.77844 1.40098 -67.9623 -65.0684 -43.7727 -13.1141 0.313418 -0.940905 38.1828 10.0312 -0.729548 57.6008 15.9629 -12.136 -103.256 12.4974 -7.33971 2.08502 10.3218 -8.05057 -91.8836 0.00394553 0.00895438 -143.291 9.66952 8.12816 -57.997 -0.723288 -4.74756 31.7608 -0.326066 -0.613981 -91.8836 0.00393925 0.00894932 
0.099196 87.7506 9.50133 -46.2956 -65.0567 -133.825 -15.0194 7.03288 2.37148 9.05649 3.11193 0.105607 -2.18988 2.96694 -0.153076 -9.19482 32.9739 96.9443 -33.0724 42.3284 58.3139 -64.7368 -7.23638 1.26743 -152.234 -68.0526 -147.027 167.777 19.6329 104.057 -44.1316 -34.5345 49.7129 -85.2636 -7.72005 1.40079 -40.6178 -73.2418 -8.48673 -13.7191 -0.823054 -0.339079 37.222 3.49237 0.151145 73.1954 13.6694 -16.5005 -109.782 9.63367 -7.92771 5.4195 8.45148 -16.0414 -91.8836 0.00394553 0.00895438 -158.992 9.41178 3.42803 -43.9467 -1.56705 -2.92506 27.0736 -5.01088 -2.06798 -91.8836 0.00393925 0.00894932 
0.0959356 92.3147 21.2132 -47.0913 -66.8117 -138.193 -15.606 10.191 6.37837 9.18441 5.02122 0.997243 -2.02838 4.9362 0.59903 -7.79116 36.5107 92.0817 -28.4626 48.3663 49.2709 -73.1038 -7.43071 1.34329 -137.497 -64.4748 -128.891 168.8 16.1496 100.9 -31.1477 -57.4418 56.232 -89.7191 -7.83094 1.40116 -21.9918 -77.96 11.9006 -15.247 -2.3178 -0.182648 33.2216 -3.94083 -0.327047 84.1975 12.7407 -17.315 -106.552 6.58584 -8.5358 6.20696 6.93536 -22.1123 -91.8836 0.00394553 0.00895438 -175.246 12.3712 -2.93189 -20.9875 -2.74085 0.229091 8.33355 -6.87255 -3.77583 -91.8836 0.00393925 0.00894932 
-0.0171703 97.5513 32.5443 -39.982 -69.6625 -136.357 -15.9024 11.8927 12.8258 9.81291 6.53229 2.46238 -1.41098 6.51904 1.97222 -5.93949 38.3942 86.0609 -24.5121 55.011 38.1379 -82.6414 -7.65684 1.39223 -126.57 -60.7235 -113.537 169.906 16.0371 97.5156 -1.61264 -75.4239 79.2505 -97.3495 -7.98658 1.39597 -35.8673 -82.4099 -4.28925 -17.3243 -3.95701 -0.453026 27.2742 -12.0791 -2.38697 92.662 13.691 -14.6471 -99.5076 4.04364 -9.25069 7.38227 6.84697 -22.8308 -91.8836 0.00394553 0.00895438 -176.797 16.5946 -9.74316 -22.1362 -2.50146 0.0890659 3.05159 -6.91104 -0.63145 -91.8836 0.00393925 0.00894932 
-0.359236 103.396 43.2025 -24.6168 -72.3425 -125.844 -15.8012 12.1959 19.233 10.5478 7.27795 4.23384 -0.736742 7.34194 3.72356 -4.8841 38.4657 81.3919 -20.6573 61.7438 26.986 -89.9436 -7.8338 1.40372 -120.716 -57.4233 -101.088 171.339 19.6884 94.4977 69.1997 -83.4498 141.296 -102.963 -8.14672 1.36827 -93.2314 -79.1861 -64.2159 -19.5355 -5.40887 -1.02915 20.5978 -19.4946 -5.69621 100.128 14.7362 -10.0174 -89.873 3.65878 -9.74927 7.10755 9.1622 -19.5721 -91.8836 0.00394553 0.00895438 -177.348 20.4235 -14.666 -23.008 -2.60232 -0.159127 -10.1583 -5.82325 7.49081 -91.8836 0.00393925 0.00894932 
-0.808267 109.262 53.0448 -7.59222 -73.5942 -111.133 -15.23 11.5742 22.3966 11.0339 7.09581 5.63072 -0.3137 7.22204 5.16948 -4.80869 38.2503 78.8492 -20.6398 67.3221 22.3507 -93.2925 -7.91488 1.40597 -117.384 -54.0302 -89.9004 172.831 24.3991 92.3203 155.211 -84.4821 -142.612 -102.424 -8.13386 1.37118 -111.688 -69.5377 -82.5856 -21.4308 -6.34964 -1.59583 14.8923 -23.9779 -8.81153 106.438 14.5151 -6.26807 -78.2458 3.01801 -9.53897 3.9579 12.2986 -13.7343 -91.8836 0.00394553 0.00895438 -179.025 23.8122 -15.96 -20.5918 -3.30296 -0.104896 -26.5631 -6.47712 15.8383 -91.8836 0.00393925 0.00894932 
-1.1396 114.652 62.2123 4.40626 -74.1435 -98.7992 -14.6968 10.249 21.7742 11.0429 6.03923 6.25348 -0.328581 6.20607 5.89116 -4.99925 38.7278 77.5103 -32.7138 69.8966 32.6327 -93.4688 -7.91924 1.40773 -114.549 -49.551 -79.6996 173.786 27.5006 91.2598 -112.908 -80.822 -60.325 -95.606 -7.97036 1.3974 -119.232 -60.593 -87.0024 -22.818 -6.68054 -1.9605 11.3022 -24.476 -10.4002 110.353 13.2392 -3.93273 -64.4603 2.56988 -8.13966 -2.73559 14.2241 -7.99294 -91.8836 0.00394553 0.00895438 -177.239 24.1649 -14.9898 -26.7218 -3.87487 -1.37454 -34.9722 -8.41915 20.6123 -91.8836 0.00393925 0.00894932 
-1.12705 119.318 71.114 9.67044 -75.5797 -91.8595 -15.2538 8.29433 18.8558 10.2474 4.43632 6.03066 -1.09722 4.6432 5.7787 -4.609 39.6122 76.1051 -52.0972 65.4255 50.795 -92.5268 -7.89636 1.40911 -112.255 -43.3638 -72.1672 173.927 27.1552 91.1786 -70.5385 -67.8425 -25.51 -84.6253 -7.70411 1.39786 -124.79 -54.4024 -87.3673 -23.604 -6.51714 -2.05512 10.2863 -21.3376 -9.96507 110.591 11.4232 -2.857 -50.1061 2.74083 -5.76327 -11.1331 13.7199 -3.37913 -91.8836 0.00394553 0.00895438 -175.738 23.1587 -13.5486 -35.7223 -5.74271 -2.88421 -37.0558 -9.29465 18.4306 -91.8836 0.00393925 0.00894932 
-0.687595 122.874 79.805 10.7082 -77.8287 -89.7172 -17.2615 6.21573 16.1982 8.64794 2.90096 5.34585 -2.65442 3.17727 5.17724 -3.57844 39.5365 74.3861 -61.7535 55.5603 57.198 -91.8607 -7.87998 1.41019 -112.261 -36.8536 -68.5739 173.719 24.4316 91.3536 -54.262 -51.284 -13.6955 -72.1804 -7.40875 1.3367 -128.702 -50.4925 -86.2764 -23.8433 -6.22001 -1.97861 11.4225 -17.0136 -8.28376 108.71 9.72443 -2.7471 -38.1303 3.65785 -3.47588 -19.0896 11.7738 0.2792 -91.8836 0.00394553 0.00895438 -158.205 18.6311 -17.0824 -74.7358 -3.15412 -6.98694 -26.1537 -7.9862 16.7725 -91.8836 0.00393925 0.00894932 
-0.00848078 125.768 88.5826 9.42953 -79.6721 -90.3758 -20.0976 4.5173 14.0828 6.58656 1.80846 4.52222 -4.68624 2.17809 4.39994 -2.76805 37.903 73.3165 -63.4918 44.6055 53.2163 -91.1362 -7.86222 1.41088 -115.084 -31.9405 -68.0243 173.418 21.2746 91.6131 -47.502 -35.1491 -8.03782 -58.8733 -7.1136 1.20105 -131.316 -48.0187 -85.4765 -23.557 -5.99825 -1.84246 14.6721 -13.3314 -5.97224 106.968 8.65658 -3.05113 -31.2777 4.62163 -2.13043 -24.9946 9.72948 2.55654 -91.8836 0.00394553 0.00895438 -144.346 13.6832 -20.3238 -103.316 -1.72934 -8.03491 -22.5337 -7.31679 14.6976 -91.8836 0.00393925 0.00894932 
0.606942 128.031 97.5263 6.89699 -79.7118 -92.2062 -22.7841 3.579 12.3263 4.69935 1.29212 3.82543 -6.56667 1.73372 3.71912 -3.38086 34.9361 74.6608 -60.3889 34.8643 42.4429 -89.503 -7.82236 1.41108 -119.971 -30.245 -68.885 173.038 19.4151 92.2585 -46.2674 -21.5917 -4.58223 -44.8046 -6.84696 0.989743 -134.051 -46.5482 -86.851 -22.7765 -5.89066 -1.76141 20.0353 -11.1577 -3.48705 107.125 8.29216 -3.41698 -30.3647 4.94896 -1.89232 -28.8031 8.28126 3.50318 -91.8836 0.00394553 0.00895438 -133.97 7.66036 -21.7603 -121.289 -1.09042 -7.1676 -26.6064 -9.20557 12.8033 -91.8836 0.00393925 0.00894932 
0.886644 129.613 106.773 4.73425 -77.7572 -93.189 -24.5076 3.3527 10.707 3.56119 1.10374 3.34915 -7.71104 1.54695 3.25023 -5.01503 31.7799 78.0369 -56.1758 25.4728 28.8606 -87.0159 -7.76226 1.41074 -124.42 -31.6946 -69.5783 172.524 19.1879 93.4919 -47.9783 -10.7753 -1.26068 -31.3365 -6.64508 0.730292 -137.998 -46.2161 -90.9342 -21.7377 -5.78174 -1.80912 26.2895 -9.95192 -1.32784 108.945 8.33111 -3.7756 -33.1925 4.99756 -2.21439 -31.2262 7.08338 3.50685 -91.8836 0.00394553 0.00895438 -122.586 1.3186 -19.9948 -133.834 0.342516 -5.52532 -30.4273 -12.78 9.67759 -91.8836 0.00393925 0.00894932 
0.724656 130.429 116.581 4.48523 -74.5937 -91.5338 -25.0788 3.61772 8.86267 3.26327 0.949735 2.98655 -8.01839 1.32094 2.90163 -6.57801 29.1033 81.7979 -53.4548 15.7191 15.8884 -84.6393 -7.70517 1.4099 -126.66 -35.0989 -69.5156 171.846 19.9945 95.2007 -50.9843 -2.44025 3.46792 -20.2533 -6.52764 0.485583 -142.56 -47.3442 -96.6307 -20.6938 -5.59943 -1.98528 32.0379 -9.07867 0.338713 110.58 8.59004 -3.96353 -36.6539 4.97936 -2.57705 -33.1542 5.81364 2.94199 -91.8836 0.00394553 0.00895438 -109.346 -2.71276 -16.2894 -140.348 0.0405594 -4.41608 -36.8976 -16.4268 6.05139 -91.8836 0.00393925 0.00894932 
0.23467 130.478 126.98 6.17824 -71.3612 -87.4755 -24.7549 4.15726 6.82373 3.57057 0.628632 2.49325 -7.71705 0.880549 2.43759 -7.25137 27.1078 84.3574 -52.0882 6.65705 5.91152 -83.7761 -7.68399 1.40861 -126.097 -38.7326 -68.5953 171.03 21.1521 97.167 -53.8549 3.36328 10.5945 -12.8464 -6.47649 0.312303 -146.343 -50.4204 -101.825 -19.8599 -5.35611 -2.23918 36.2263 -8.32938 1.66526 109.657 8.85935 -3.7909 -38.2177 5.1457 -2.62785 -34.659 4.41407 2.12053 -91.8836 0.00394553 0.00895438 -95.8382 -1.72033 -13.2526 -142.821 -0.0184716 -4.03009 -35.3971 -16.0333 1.04119 -91.8836 0.00393925 0.00894932 
-0.453448 129.639 137.794 8.79416 -69.1558 -81.8461 -24.1837 5.19405 4.27613 4.00809 0.156237 1.63866 -7.27923 0.279528 1.62311 -6.9383 25.4763 85.2413 -50.1744 -0.614581 -0.678236 -85.2776 -7.72067 1.4069 -124.146 -40.9842 -67.7854 170.151 22.2521 99.2033 -54.9287 7.26598 19.783 -8.47144 -6.45674 0.206807 -148.26 -55.2281 -104.301 -19.3423 -5.13154 -2.45473 38.759 -7.80711 3.00259 105.035 8.76688 -3.54985 -36.979 5.08993 -2.27133 -35.8241 2.93201 1.08204 -91.8836 0.00394553 0.00895438 -85.111 3.60047 -12.0971 -141.055 -1.02123 -4.55433 -30.5142 -11.5432 -3.38082 -91.8836 0.00393925 0.00894932 
